<?xml version="1.0" encoding="UTF-8"?>
<!DOCTYPE svg PUBLIC "-//W3C//DTD SVG 1.1//EN" "http://www.w3.org/Graphics/SVG/1.1/DTD/svg11.dtd">
<!-- Creator: CorelDRAW 2018 (64 Bit Testversion) -->
<svg xmlns="http://www.w3.org/2000/svg" xml:space="preserve" width="210mm" height="297mm" version="1.1" shape-rendering="geometricPrecision" text-rendering="geometricPrecision" image-rendering="optimizeQuality" fill-rule="evenodd" clip-rule="evenodd"
viewBox="0 0 21000 29700"
 xmlns:xlink="http://www.w3.org/1999/xlink">
 <defs>
    <clipPath id="id0">
     <path d="M17010.14 6739.77c1984.12,0 3592.56,1608.44 3592.56,3592.56 0,1984.12 -1608.44,3592.56 -3592.56,3592.56 -1984.12,0 -3592.56,-1608.44 -3592.56,-3592.56 0,-1984.12 1608.44,-3592.56 3592.56,-3592.56z"/>
    </clipPath>
 </defs>
 <g id="Ebene_x0020_1">
  <metadata id="CorelCorpID_0Corel-Layer"/>
  <g>
   <g clip-path="url(#id0)">
    <image x="13417.58" y="6739.77" width="7185.12" height="7185.12" xlink:href="Emg logo svg_Images\Emg logo svg_ImgID1.png"/>
   </g>
   <path fill="none" stroke="black" stroke-width="20" stroke-miterlimit="22.9256" d="M17010.14 6739.77c1984.12,0 3592.56,1608.44 3592.56,3592.56 0,1984.12 -1608.44,3592.56 -3592.56,3592.56 -1984.12,0 -3592.56,-1608.44 -3592.56,-3592.56 0,-1984.12 1608.44,-3592.56 3592.56,-3592.56z"/>
  </g>
  <g>
   <polygon fill="white" points="17015.12,10332.77 20053.54,10589.67 20588.82,10645.43 20051.99,10607.39 "/>
   <polygon fill="white" points="17015.06,10333.2 20019.85,10854 20548.29,10956.2 20016.76,10871.51 "/>
   <polygon fill="white" points="17014.97,10333.62 19963.38,11114.45 20480.98,11262.34 19958.78,11131.62 "/>
   <polygon fill="white" points="17014.84,10334.04 19884.03,11368.88 20386.78,11561.33 19877.95,11385.59 "/>
   <polygon fill="white" points="17014.67,10334.44 19782.51,11615.3 20266.54,11850.81 19775,11631.42 "/>
   <polygon fill="white" points="17014.47,10334.83 19659.92,11851.92 20121.54,12128.7 19651.03,11867.32 "/>
   <polygon fill="white" points="17014.24,10335.2 19517.23,12076.97 19952.94,12392.9 19507.03,12091.53 "/>
   <polygon fill="white" points="17013.97,10335.54 19355.59,12288.79 19762.09,12641.49 19344.16,12302.41 "/>
   <polygon fill="white" points="17013.68,10335.87 19176.23,12485.85 19550.46,12872.65 19163.66,12498.42 "/>
   <polygon fill="white" points="17013.35,10336.16 18980.22,12666.35 19319.3,13084.28 18966.6,12677.78 "/>
   <polygon fill="white" points="17013.01,10336.43 18769.34,12829.22 19070.71,13275.13 18754.78,12839.42 "/>
   <polygon fill="white" points="17012.64,10336.66 18545.13,12973.22 18806.51,13443.73 18529.73,12982.11 "/>
   <polygon fill="white" points="17012.25,10336.86 18309.23,13097.19 18528.62,13588.73 18293.11,13104.7 "/>
   <polygon fill="white" points="17011.85,10337.03 18063.4,13200.14 18239.14,13708.97 18046.69,13206.22 "/>
   <polygon fill="white" points="17011.43,10337.16 17809.43,13280.97 17940.15,13803.17 17792.26,13285.57 "/>
   <polygon fill="white" points="17011.01,10337.25 17549.32,13338.95 17634.01,13870.48 17531.81,13342.04 "/>
   <polygon fill="white" points="17010.58,10337.31 17285.2,13374.18 17323.24,13911.01 17267.48,13375.73 "/>
   <polygon fill="white" points="17010.14,10337.33 17019.03,13386.76 17010.14,13924.89 17001.25,13386.76 "/>
   <polygon fill="white" points="17009.7,10337.31 16752.8,13375.73 16697.04,13911.01 16735.08,13374.18 "/>
   <polygon fill="white" points="17009.27,10337.25 16488.47,13342.04 16386.27,13870.48 16470.96,13338.95 "/>
   <polygon fill="white" points="17008.85,10337.16 16228.02,13285.57 16080.13,13803.17 16210.85,13280.97 "/>
   <polygon fill="white" points="17008.43,10337.03 15973.59,13206.22 15781.14,13708.97 15956.88,13200.14 "/>
   <polygon fill="white" points="17008.03,10336.86 15727.17,13104.7 15491.66,13588.73 15711.05,13097.19 "/>
   <polygon fill="white" points="17007.64,10336.66 15490.55,12982.11 15213.77,13443.73 15475.15,12973.22 "/>
   <polygon fill="white" points="17007.27,10336.43 15265.5,12839.42 14949.57,13275.13 15250.94,12829.22 "/>
   <polygon fill="white" points="17006.93,10336.16 15053.68,12677.78 14700.98,13084.28 15040.06,12666.35 "/>
   <polygon fill="white" points="17006.6,10335.87 14856.62,12498.42 14469.82,12872.65 14844.05,12485.85 "/>
   <polygon fill="white" points="17006.31,10335.54 14676.12,12302.41 14258.19,12641.49 14664.69,12288.79 "/>
   <polygon fill="white" points="17006.04,10335.2 14513.25,12091.53 14067.34,12392.9 14503.05,12076.97 "/>
   <polygon fill="white" points="17005.81,10334.83 14369.25,11867.32 13898.74,12128.7 14360.36,11851.92 "/>
   <polygon fill="white" points="17005.61,10334.44 14245.28,11631.42 13753.74,11850.81 14237.77,11615.3 "/>
   <polygon fill="white" points="17005.44,10334.04 14142.33,11385.59 13633.5,11561.33 14136.25,11368.88 "/>
   <polygon fill="white" points="17005.31,10333.62 14061.5,11131.62 13539.3,11262.34 14056.9,11114.45 "/>
   <polygon fill="white" points="17005.22,10333.2 14003.52,10871.51 13471.99,10956.2 14000.43,10854 "/>
   <polygon fill="white" points="17005.16,10332.77 13968.29,10607.39 13431.46,10645.43 13966.74,10589.67 "/>
   <polygon fill="white" points="17005.14,10332.33 13955.71,10341.22 13417.58,10332.33 13955.71,10323.44 "/>
   <polygon fill="white" points="17005.16,10331.89 13966.74,10074.99 13431.46,10019.23 13968.29,10057.27 "/>
   <polygon fill="white" points="17005.22,10331.46 14000.43,9810.66 13471.99,9708.46 14003.52,9793.15 "/>
   <polygon fill="white" points="17005.31,10331.04 14056.9,9550.21 13539.3,9402.32 14061.5,9533.04 "/>
   <polygon fill="white" points="17005.44,10330.62 14136.25,9295.78 13633.5,9103.33 14142.33,9279.07 "/>
   <polygon fill="white" points="17005.61,10330.22 14237.77,9049.36 13753.74,8813.85 14245.28,9033.24 "/>
   <polygon fill="white" points="17005.81,10329.83 14360.36,8812.74 13898.74,8535.96 14369.25,8797.34 "/>
   <polygon fill="white" points="17006.04,10329.46 14503.05,8587.69 14067.34,8271.76 14513.25,8573.13 "/>
   <polygon fill="white" points="17006.31,10329.12 14664.69,8375.87 14258.19,8023.17 14676.12,8362.25 "/>
   <polygon fill="white" points="17006.6,10328.79 14844.04,8178.81 14469.81,7792 14856.62,8166.23 "/>
   <polygon fill="white" points="17006.93,10328.5 15040.06,7998.31 14700.98,7580.38 15053.68,7986.88 "/>
   <polygon fill="white" points="17007.27,10328.23 15250.94,7835.44 14949.57,7389.53 15265.5,7825.24 "/>
   <polygon fill="white" points="17007.64,10328 15475.15,7691.44 15213.77,7220.93 15490.55,7682.55 "/>
   <polygon fill="white" points="17008.03,10327.8 15711.05,7567.47 15491.66,7075.93 15727.17,7559.96 "/>
   <polygon fill="white" points="17008.43,10327.63 15956.88,7464.52 15781.14,6955.69 15973.59,7458.44 "/>
   <polygon fill="white" points="17008.85,10327.5 16210.85,7383.69 16080.13,6861.49 16228.02,7379.09 "/>
   <polygon fill="white" points="17009.27,10327.41 16470.96,7325.71 16386.27,6794.18 16488.47,7322.62 "/>
   <polygon fill="white" points="17009.7,10327.35 16735.08,7290.48 16697.04,6753.65 16752.8,7288.93 "/>
   <polygon fill="white" points="17010.14,10327.33 17001.25,7277.9 17010.14,6739.77 17019.03,7277.9 "/>
   <polygon fill="white" points="17010.58,10327.35 17267.48,7288.93 17323.24,6753.65 17285.2,7290.48 "/>
   <polygon fill="white" points="17011.01,10327.41 17531.81,7322.62 17634.01,6794.18 17549.32,7325.71 "/>
   <polygon fill="white" points="17011.43,10327.5 17792.26,7379.09 17940.15,6861.49 17809.43,7383.69 "/>
   <polygon fill="white" points="17011.85,10327.63 18046.69,7458.44 18239.14,6955.69 18063.4,7464.52 "/>
   <polygon fill="white" points="17012.25,10327.8 18293.11,7559.96 18528.62,7075.93 18309.23,7567.47 "/>
   <polygon fill="white" points="17012.64,10328 18529.73,7682.55 18806.51,7220.93 18545.13,7691.44 "/>
   <polygon fill="white" points="17013.01,10328.23 18754.78,7825.24 19070.71,7389.53 18769.34,7835.44 "/>
   <polygon fill="white" points="17013.35,10328.5 18966.6,7986.88 19319.3,7580.38 18980.22,7998.31 "/>
   <polygon fill="white" points="17013.68,10328.79 19163.66,8166.23 19550.47,7792 19176.24,8178.81 "/>
   <polygon fill="white" points="17013.97,10329.12 19344.16,8362.25 19762.09,8023.17 19355.59,8375.87 "/>
   <polygon fill="white" points="17014.24,10329.46 19507.03,8573.13 19952.94,8271.76 19517.23,8587.69 "/>
   <polygon fill="white" points="17014.47,10329.83 19651.03,8797.34 20121.54,8535.96 19659.92,8812.74 "/>
   <polygon fill="white" points="17014.67,10330.22 19775,9033.24 20266.54,8813.85 19782.51,9049.36 "/>
   <polygon fill="white" points="17014.84,10330.62 19877.95,9279.07 20386.78,9103.33 19884.03,9295.78 "/>
   <polygon fill="white" points="17014.97,10331.04 19958.78,9533.04 20480.98,9402.32 19963.38,9550.21 "/>
   <polygon fill="white" points="17015.06,10331.46 20016.76,9793.15 20548.29,9708.46 20019.85,9810.66 "/>
   <polygon fill="white" points="17015.12,10331.89 20051.99,10057.27 20588.82,10019.23 20053.54,10074.99 "/>
   <polygon fill="white" points="17015.14,10332.33 20064.57,10323.44 20602.7,10332.33 20064.57,10341.22 "/>
  </g>
 </g>
 <g id="Ebene_x0020_2">
  <metadata id="CorelCorpID_1Corel-Layer"/>
  <path fill="#0011FF" fill-rule="nonzero" d="M18558.84 11697.2l366.04 0 242.2 -242.2 -608.24 0 0 242.2zm202.14 320.53c-61.9,27.31 -129.27,41.86 -202.14,41.86 -132.93,0 -249.47,-45.52 -344.2,-140.2 -94.68,-94.73 -140.19,-211.27 -140.19,-344.2 0,-132.97 45.51,-247.65 140.19,-342.38 96.54,-96.49 211.27,-142.05 344.2,-142.05 134.77,0 247.65,47.36 342.38,142.05l174.83 -171.17c-67.41,-67.37 -145.71,-120.2 -233.12,-158.44 -89.22,-38.24 -183.9,-56.44 -284.09,-56.44 -202.15,0 -373.32,71.02 -513.56,214.88 -143.86,142.05 -214.88,313.22 -214.88,513.55 0,202.15 72.83,371.51 214.88,513.56 142.05,142.05 311.41,214.88 513.56,214.88 63.75,0 123.85,-7.27 182.14,-23.66 60.05,-14.58 114.68,-36.44 165.7,-65.56 52.79,-29.17 100.15,-63.75 143.86,-103.8 45.51,-40.1 83.76,-85.61 116.54,-134.78l-242.2 -80.15c-47.36,52.83 -102,92.88 -163.9,122.05z"/>
  <path fill="#0011FF" fill-rule="nonzero" d="M15189.51 9124.13l0 242.2 242.2 0 728.43 0 0 -242.2 -728.43 0 -242.2 0zm0 -608.24l242.2 244 728.43 0 0 -244 -970.63 0zm0 1436.82l0 20.05 970.63 0 0 -244.04 -728.43 0 -242.2 223.99z"/>
  <polygon fill="#0011FF" fill-rule="nonzero" points="16320.5,10018.14 17050.79,10752.04 17538.83,10265.8 17538.83,11136.28 17779.22,11136.28 17779.22,9679.41 17050.79,10407.85 16320.5,9679.41 "/>
 </g>
</svg>
